Title:  	
A Monkey on my Shoulder Aka À Coeur Ouvert

Country: France/2012

Language: French

No Subtitle

Director:
Marion Laine

Writers:
Marion Laine, Mathias Énard (novel)

Stars:
Juliette Binoche, Édgar Ramírez and Hippolyte Girardot 

Sumary:
Mila and Javier are both heart surgeons. Married for then years, they have two passions: their love and their job. But Mila unexpectedly becomes pregnant, and the perspective of a baby undermines the balance of their relationship. Javier's penchant for alcohol then becomes a genuine threat... 

Imdb: 
http://www.imdb.com/title/tt2088962/?ref_=fn_al_tt_2

Trailer: 
http://www.bandes-annonces.fr/film-2012/bande-annonce-acoeurouvert.html


Media Info:

General
Complete name                            : A.Monkey.on.my.Shoulder.2012.DVDRip.AC3.HORiZON-ArtSubs
Format                                   : AVI
Format/Info                              : Audio Video Interleave
File size                                : 702 MiB
Duration                                 : 1h 27mn
Overall bit rate                         : 1 121 Kbps

Video
ID                                       : 0
Format                                   : MPEG-4 Visual
Format profile                           : Simple@L3
Format settings, BVOP                    : No
Format settings, QPel                    : No
Format settings, GMC                     : No warppoints
Format settings, Matrix                  : Default (H.263)
Codec ID                                 : XVID
Codec ID/Hint                            : XviD
Duration                                 : 1h 27mn
Bit rate                                 : 980 Kbps
Width                                    : 624 pixels
Height                                   : 336 pixels
Display aspect ratio                     : 1.85:1
Frame rate                               : 25.000 fps
Color space                              : YUV
Chroma subsampling                       : 4:2:0
Bit depth                                : 8 bits
Scan type                                : Progressive
Compression mode                         : Lossy
Bits/(Pixel*Frame)                       : 0.187
Stream size                              : 613 MiB (87%)
Writing library                          : XviD 1.1.2 (UTC 2006-11-01)

Audio
ID                                       : 1
Format                                   : MPEG Audio
Format version                           : Version 1
Format profile                           : Layer 3
Mode                                     : Joint stereo
Mode extension                           : MS Stereo
Codec ID                                 : 55
Codec ID/Hint                            : MP3
Duration                                 : 1h 27mn
Source duration                          : 1h 27mn
Bit rate mode                            : Constant
Bit rate                                 : 128 Kbps
Channel(s)                               : 2 channels
Sampling rate                            : 48.0 KHz
Compression mode                         : Lossy
Stream size                              : 80.1 MiB (11%)
Alignment                                : Split accross interleaves
Interleave, duration                     : 24 ms (0.60 video frame)
Writing library                          : LAME3.98

